<mxfile host="app.diagrams.net" modified="2024-07-18T14:05:14.804Z" agent="Mozilla/5.0 (Windows NT 10.0; Win64; x64) AppleWebKit/537.36 (KHTML, like Gecko) Chrome/126.0.0.0 Safari/537.36 Edg/126.0.0.0" etag="CDyVfUVutXvijrHf8p4y" version="24.6.5" type="device">
  <diagram name="Page-1" id="KikJWC8VtlyA4aeZkhAx">
    <mxGraphModel dx="1426" dy="759" grid="1" gridSize="10" guides="1" tooltips="1" connect="1" arrows="1" fold="1" page="1" pageScale="1" pageWidth="850" pageHeight="1100" math="0" shadow="0">
      <root>
        <mxCell id="0" />
        <mxCell id="1" parent="0" />
        <mxCell id="MA8b62JiuG-zBwXrXTgq-1" value="Raw S3 Json Data" style="sketch=0;points=[[0,0,0],[0.25,0,0],[0.5,0,0],[0.75,0,0],[1,0,0],[0,1,0],[0.25,1,0],[0.5,1,0],[0.75,1,0],[1,1,0],[0,0.25,0],[0,0.5,0],[0,0.75,0],[1,0.25,0],[1,0.5,0],[1,0.75,0]];outlineConnect=0;fontColor=#232F3E;fillColor=#7AA116;strokeColor=#ffffff;dashed=0;verticalLabelPosition=bottom;verticalAlign=top;align=center;html=1;fontSize=12;fontStyle=0;aspect=fixed;shape=mxgraph.aws4.resourceIcon;resIcon=mxgraph.aws4.s3;" vertex="1" parent="1">
          <mxGeometry x="90" y="310" width="78" height="78" as="geometry" />
        </mxCell>
        <mxCell id="MA8b62JiuG-zBwXrXTgq-2" value="Spark" style="image;aspect=fixed;html=1;points=[];align=center;fontSize=12;image=img/lib/azure2/analytics/Azure_Databricks.svg;" vertex="1" parent="1">
          <mxGeometry x="240" y="315" width="62.8" height="68" as="geometry" />
        </mxCell>
        <mxCell id="MA8b62JiuG-zBwXrXTgq-3" value="Transformed Data Lake" style="sketch=0;points=[[0,0,0],[0.25,0,0],[0.5,0,0],[0.75,0,0],[1,0,0],[0,1,0],[0.25,1,0],[0.5,1,0],[0.75,1,0],[1,1,0],[0,0.25,0],[0,0.5,0],[0,0.75,0],[1,0.25,0],[1,0.5,0],[1,0.75,0]];outlineConnect=0;fontColor=#232F3E;fillColor=#7AA116;strokeColor=#ffffff;dashed=0;verticalLabelPosition=bottom;verticalAlign=top;align=center;html=1;fontSize=12;fontStyle=0;aspect=fixed;shape=mxgraph.aws4.resourceIcon;resIcon=mxgraph.aws4.s3;" vertex="1" parent="1">
          <mxGeometry x="400" y="310" width="78" height="78" as="geometry" />
        </mxCell>
        <mxCell id="MA8b62JiuG-zBwXrXTgq-4" style="edgeStyle=orthogonalEdgeStyle;rounded=0;orthogonalLoop=1;jettySize=auto;html=1;entryX=-0.048;entryY=0.544;entryDx=0;entryDy=0;entryPerimeter=0;" edge="1" parent="1" source="MA8b62JiuG-zBwXrXTgq-1" target="MA8b62JiuG-zBwXrXTgq-2">
          <mxGeometry relative="1" as="geometry" />
        </mxCell>
        <mxCell id="MA8b62JiuG-zBwXrXTgq-5" style="edgeStyle=orthogonalEdgeStyle;rounded=0;orthogonalLoop=1;jettySize=auto;html=1;entryX=0;entryY=0.5;entryDx=0;entryDy=0;entryPerimeter=0;" edge="1" parent="1" source="MA8b62JiuG-zBwXrXTgq-2" target="MA8b62JiuG-zBwXrXTgq-3">
          <mxGeometry relative="1" as="geometry" />
        </mxCell>
        <mxCell id="MA8b62JiuG-zBwXrXTgq-6" value="Snowflake Dataware House" style="image;aspect=fixed;html=1;points=[];align=center;fontSize=12;image=img/lib/azure2/databases/SQL_Data_Warehouses.svg;" vertex="1" parent="1">
          <mxGeometry x="580" y="318" width="64" height="65" as="geometry" />
        </mxCell>
        <mxCell id="MA8b62JiuG-zBwXrXTgq-7" style="edgeStyle=orthogonalEdgeStyle;rounded=0;orthogonalLoop=1;jettySize=auto;html=1;entryX=0.016;entryY=0.485;entryDx=0;entryDy=0;entryPerimeter=0;" edge="1" parent="1" source="MA8b62JiuG-zBwXrXTgq-3" target="MA8b62JiuG-zBwXrXTgq-6">
          <mxGeometry relative="1" as="geometry" />
        </mxCell>
        <mxCell id="MA8b62JiuG-zBwXrXTgq-10" value="" style="endArrow=classic;html=1;rounded=0;exitX=1.031;exitY=0.508;exitDx=0;exitDy=0;exitPerimeter=0;edgeStyle=orthogonalEdgeStyle;entryX=0.5;entryY=0;entryDx=0;entryDy=0;entryPerimeter=0;curved=1;" edge="1" parent="1" source="MA8b62JiuG-zBwXrXTgq-6" target="MA8b62JiuG-zBwXrXTgq-6">
          <mxGeometry width="50" height="50" relative="1" as="geometry">
            <mxPoint x="400" y="420" as="sourcePoint" />
            <mxPoint x="710" y="180" as="targetPoint" />
            <Array as="points">
              <mxPoint x="720" y="290" />
            </Array>
          </mxGeometry>
        </mxCell>
        <mxCell id="MA8b62JiuG-zBwXrXTgq-12" value="Validation" style="edgeLabel;html=1;align=center;verticalAlign=middle;resizable=0;points=[];" vertex="1" connectable="0" parent="MA8b62JiuG-zBwXrXTgq-10">
          <mxGeometry x="-0.5533" y="6" relative="1" as="geometry">
            <mxPoint as="offset" />
          </mxGeometry>
        </mxCell>
      </root>
    </mxGraphModel>
  </diagram>
</mxfile>
